<?xml version="1.0" standalone="no"?>
<!DOCTYPE svg PUBLIC "-//W3C//DTD SVG 20010904//EN"
 "http://www.w3.org/TR/2001/REC-SVG-20010904/DTD/svg10.dtd">
<svg version="1.0" xmlns="http://www.w3.org/2000/svg"
 width="170.000000pt" height="149.000000pt" viewBox="0 0 170.000000 149.000000"
 preserveAspectRatio="xMidYMid meet">

<g transform="translate(0.000000,149.000000) scale(0.100000,-0.100000)"
fill="#000000" stroke="none">
<path d="M1395 1071 c-59 -21 -158 -70 -235 -116 -59 -35 -551 -235 -579 -235
-9 0 -65 30 -125 66 -82 50 -113 64 -132 60 -13 -4 -24 -11 -24 -18 0 -6 25
-51 56 -100 l56 -89 -21 -18 c-11 -10 -64 -31 -116 -47 -52 -15 -95 -32 -95
-36 0 -11 15 -10 114 12 99 22 116 24 116 12 0 -4 -72 -31 -160 -60 -88 -30
-160 -58 -160 -63 0 -6 -4 -8 -9 -5 -12 8 -71 -14 -71 -25 0 -12 -13 -15 159
36 160 46 205 49 216 14 13 -41 170 -10 180 35 3 12 4 30 2 41 -2 19 4 20 163
22 215 3 202 1 225 19 17 12 18 16 5 24 -21 13 -8 21 78 52 79 28 93 29 73 4
-19 -23 4 -29 41 -10 29 15 31 17 14 30 -17 12 -15 14 19 28 21 9 42 16 47 16
5 0 66 22 136 50 147 58 167 61 158 25 -7 -27 6 -33 34 -15 12 7 12 12 2 22
-22 22 -13 37 49 85 62 49 89 86 89 123 0 22 -9 27 -113 59 -81 25 -125 26
-192 2z m185 -25 c69 -18 86 -26 88 -43 9 -64 -241 -187 -518 -253 -52 -12
-100 -28 -105 -35 -6 -7 -31 -18 -55 -25 -108 -27 -112 -30 -108 -60 4 -24 0
-30 -19 -35 -44 -11 -56 12 -23 45 20 20 20 20 -2 20 -19 0 -20 2 -8 11 12 8
9 9 -10 4 -55 -14 -60 -17 -60 -30 0 -9 -27 -22 -72 -35 -217 -63 -208 -59
-208 -100 0 -27 -22 -46 -41 -34 -14 8 -11 25 8 46 17 19 16 19 -12 13 -17 -4
-56 -16 -89 -27 -32 -10 -62 -18 -68 -16 -5 2 30 16 79 32 60 19 95 37 110 55
32 37 29 41 -24 25 -25 -8 -51 -14 -56 -14 -21 0 42 38 100 61 35 13 63 27 63
30 0 4 -25 26 -55 49 -30 23 -55 44 -55 46 0 3 30 -16 66 -40 l67 -45 46 18
c25 10 145 56 266 102 121 45 238 95 260 110 89 59 284 148 325 148 14 0 63
-10 110 -23z m-1125 -379 c-14 -5 -28 -7 -29 -6 -6 8 -83 125 -91 139 -5 8 26
-16 69 -55 78 -69 78 -69 51 -78z m-240 -197 c-27 -10 -57 -18 -65 -18 -8 0 8
8 35 18 28 10 57 18 65 18 8 0 -7 -8 -35 -18z"/>
<path d="M1055 750 c-66 -24 -46 -25 30 -1 33 11 51 19 40 19 -11 0 -42 -8
-70 -18z"/>
</g>
</svg>
